<svg width="144" height="24" viewBox="0 0 144 24" fill="none" xmlns="http://www.w3.org/2000/svg">
<g clip-path="url(#clip0_2502_12461)">
<path d="M37.3654 7.96504C36.5431 7.29652 35.507 6.9476 34.4479 6.98254H30.2704V18.2775H32.9029V14.46H35.1529C35.3924 14.4611 35.6313 14.4359 35.8654 14.385H36.0004C36.8036 14.1356 37.4887 13.6024 37.9279 12.885C38.352 12.268 38.5723 11.5337 38.5579 10.785C38.5919 10.2547 38.5018 9.72365 38.2948 9.23414C38.0878 8.74463 37.7696 8.31011 37.3654 7.96504ZM35.8654 10.725C35.8799 10.9037 35.853 11.0833 35.7867 11.2499C35.7203 11.4164 35.6163 11.5654 35.4829 11.685C35.1268 11.937 34.696 12.0612 34.2604 12.0375H32.8954V9.39754H34.2904C34.7255 9.36767 35.1568 9.49546 35.5054 9.75754C35.6417 9.87728 35.7485 10.0269 35.8174 10.1947C35.8864 10.3626 35.9156 10.5441 35.9029 10.725H35.8654ZM131.55 7.96504C130.725 7.2966 129.687 6.94781 128.625 6.98254H124.448V18.2775H127.08V14.46H129.33C129.582 14.4639 129.834 14.4387 130.08 14.385H130.223C131.023 14.1333 131.705 13.6005 132.143 12.885C132.567 12.268 132.787 11.5337 132.773 10.785C132.802 10.2523 132.707 9.72016 132.495 9.23068C132.282 8.7412 131.959 8.30787 131.55 7.96504ZM130.05 10.725C130.065 10.9044 130.038 11.0848 129.97 11.2516C129.902 11.4183 129.796 11.5668 129.66 11.685C129.308 11.9381 128.879 12.0625 128.445 12.0375H127.05V9.39754H128.445C128.878 9.36677 129.307 9.49475 129.653 9.75754C129.791 9.87616 129.898 10.0256 129.967 10.1937C130.036 10.3618 130.065 10.5439 130.05 10.725ZM51.9304 8.25004C50.834 7.17496 49.3597 6.57275 47.8241 6.57275C46.2886 6.57275 44.8143 7.17496 43.7179 8.25004C42.6663 9.38553 42.082 10.8761 42.082 12.4238C42.082 13.9714 42.6663 15.462 43.7179 16.5975C44.8243 17.6679 46.3034 18.2664 47.8429 18.2664C49.3823 18.2664 50.8615 17.6679 51.9679 16.5975C53.0162 15.4604 53.5983 13.9704 53.5983 12.4238C53.5983 10.8772 53.0162 9.38716 51.9679 8.25004H51.9304ZM50.0254 14.8575C49.737 15.1464 49.3944 15.3756 49.0174 15.532C48.6403 15.6884 48.2361 15.7689 47.8279 15.7689C47.4197 15.7689 47.0154 15.6884 46.6384 15.532C46.2613 15.3756 45.9188 15.1464 45.6304 14.8575C45.0741 14.1771 44.7703 13.3252 44.7703 12.4463C44.7703 11.5674 45.0741 10.7155 45.6304 10.035C45.9144 9.74435 46.253 9.51269 46.6269 9.35339C47.0008 9.19408 47.4024 9.11027 47.8088 9.10679C48.2152 9.1033 48.6182 9.18021 48.9948 9.33308C49.3713 9.48595 49.7139 9.71177 50.0029 9.99754V10.035C50.5631 10.7137 50.8696 11.5663 50.8696 12.4463C50.8696 13.3263 50.5631 14.1789 50.0029 14.8575H50.0254ZM119.205 8.25004C118.109 7.17722 116.637 6.57643 115.103 6.57643C113.569 6.57643 112.096 7.17722 111 8.25004C109.949 9.38553 109.365 10.8761 109.365 12.4238C109.365 13.9714 109.949 15.462 111 16.5975C112.106 17.6697 113.585 18.2693 115.125 18.2693C116.665 18.2693 118.145 17.6697 119.25 16.5975C120.302 15.462 120.886 13.9714 120.886 12.4238C120.886 10.8761 120.302 9.38553 119.25 8.25004H119.205ZM117.3 14.8275C117.013 15.1162 116.671 15.3453 116.294 15.5015C115.918 15.6578 115.514 15.7383 115.107 15.7383C114.699 15.7383 114.295 15.6578 113.919 15.5015C113.543 15.3453 113.201 15.1162 112.913 14.8275C112.357 14.1471 112.053 13.2952 112.053 12.4163C112.053 11.5374 112.357 10.6855 112.913 10.005C113.197 9.71435 113.536 9.48269 113.909 9.32339C114.283 9.16408 114.685 9.08027 115.091 9.07679C115.498 9.0733 115.901 9.15021 116.277 9.30308C116.654 9.45595 116.996 9.68177 117.285 9.96754L117.323 10.005C117.89 10.6805 118.201 11.5343 118.201 12.4163C118.201 13.2983 117.89 14.1521 117.323 14.8275H117.3ZM143.19 6.98254H136.253V18.2775H138.9V9.42004H142.388L142.515 9.22504L143.558 7.65754L144 6.98254H143.19ZM106.583 6.98254H97.3054V9.42004H100.838V18.2775H103.5V9.42004H107.033V6.98254H106.583ZM65.2504 15.33L65.0029 15.21L64.7854 15.3825C64.2661 15.7729 63.6267 15.9692 62.9779 15.9375C62.5345 15.9578 62.0918 15.8849 61.6784 15.7234C61.265 15.5619 60.8901 15.3155 60.5779 15C60.2651 14.6679 60.0223 14.2764 59.8639 13.8487C59.7054 13.4209 59.6345 12.9657 59.6554 12.51C59.6341 12.0611 59.705 11.6126 59.8636 11.1921C60.0223 10.7716 60.2654 10.388 60.5779 10.065C60.8881 9.75381 61.2597 9.51043 61.6689 9.35034C62.0782 9.19025 62.5163 9.11693 62.9554 9.13504C63.3441 9.14008 63.7274 9.22696 64.0804 9.39004C64.4671 9.56555 64.8123 9.82118 65.0929 10.14L65.3554 10.455L65.6779 10.2075L66.8854 9.30004L67.2529 9.02254L66.9604 8.67754C66.4799 8.07101 65.8674 7.58212 65.1695 7.2481C64.4715 6.91408 63.7066 6.74373 62.9329 6.75004C62.1489 6.74441 61.3708 6.88428 60.6379 7.16254C59.9338 7.42745 59.2927 7.83613 58.7554 8.36254C58.2052 8.88653 57.7753 9.5237 57.4954 10.23C57.2077 10.945 57.0625 11.7094 57.0679 12.48C57.0654 13.2491 57.2052 14.0119 57.4804 14.73C57.7529 15.428 58.1607 16.0652 58.6804 16.605C59.2117 17.1372 59.8511 17.549 60.5554 17.8125C61.3152 18.0857 62.1179 18.2204 62.9254 18.21C63.5853 18.2413 64.245 18.1422 64.8666 17.9183C65.4882 17.6943 66.0595 17.35 66.5479 16.905C66.6409 16.8179 66.7286 16.7253 66.8104 16.6275L67.1779 16.2L66.6679 15.9525L65.2504 15.33ZM80.5054 10.2375C80.218 9.53886 79.7901 8.90671 79.2482 8.38032C78.7064 7.85392 78.0621 7.44453 77.3554 7.17754C76.6361 6.90661 75.874 6.7669 75.1054 6.76504C74.3309 6.75906 73.5654 6.93032 72.8673 7.2657C72.1692 7.60109 71.5571 8.09172 71.0779 8.70004L70.7854 9.05254L71.1529 9.32254L72.3529 10.23L72.6829 10.4775L72.9454 10.17C73.2238 9.85204 73.5663 9.59645 73.9504 9.42004C74.3029 9.25667 74.6868 9.1722 75.0754 9.17254C75.5154 9.15054 75.9551 9.2213 76.3659 9.38022C76.7768 9.53915 77.1497 9.78269 77.4604 10.095L77.7004 10.365C77.7139 10.4008 77.7373 10.432 77.7679 10.455C78.0472 10.8483 78.2344 11.2995 78.3154 11.775H73.9129L74.3704 12.45L75.1729 13.6425L75.3004 13.83H78.1504C77.9981 14.2834 77.7411 14.6945 77.4004 15.03C77.089 15.3466 76.7142 15.5938 76.3006 15.7554C75.887 15.917 75.4439 15.9893 75.0004 15.9675C74.3536 16.0013 73.7158 15.8046 73.2004 15.4125L72.9829 15.24L72.7354 15.36L71.3029 16.0575L70.7929 16.305L71.1604 16.7325C71.2504 16.8375 71.3404 16.92 71.4229 17.01C71.9112 17.455 72.4826 17.7993 73.1042 18.0233C73.7257 18.2472 74.3854 18.3463 75.0454 18.315C75.8529 18.3265 76.6558 18.1918 77.4154 17.9175C78.1184 17.656 78.7558 17.2439 79.2829 16.71C79.8073 16.1725 80.2179 15.5348 80.4904 14.835C80.7655 14.1169 80.9053 13.3541 80.9029 12.585C80.9253 11.7841 80.7903 10.9865 80.5054 10.2375ZM94.7253 17.685L90.4354 7.26754L90.3304 6.99754H87.8778L87.7729 7.26754L83.5129 17.685L83.2654 18.285H86.2654L86.3704 18.0075L89.1379 11.16L91.8829 18L91.9954 18.2775H94.9954L94.7253 17.685Z" fill="black"/>
<path d="M10.8075 13.1926H0C0.0734529 13.9762 0.226748 14.7502 0.4575 15.5026H6.8625L2.6925 19.6726C3.1799 20.2723 3.72779 20.8202 4.3275 21.3076L8.4975 17.1376V23.5426C9.24991 23.7733 10.0239 23.9266 10.8075 24.0001V13.1926ZM23.9325 13.1926H13.125V24.0001C13.9086 23.9266 14.6826 23.7733 15.435 23.5426V15.5026H21C20.5455 16.6765 19.8681 17.7513 19.005 18.6676V21.7501C21.124 20.2081 22.6828 18.0175 23.445 15.5101V15.4651C23.49 15.3226 23.5275 15.1726 23.565 15.0226C23.5676 14.9826 23.5676 14.9426 23.565 14.9026C23.61 14.7376 23.64 14.5801 23.6775 14.4226V14.2876C23.6775 14.1526 23.73 14.0176 23.7525 13.8751C23.7493 13.8352 23.7493 13.795 23.7525 13.7551C23.7525 13.6276 23.79 13.5001 23.805 13.3726C23.842 13.3089 23.8847 13.2487 23.9325 13.1926ZM12 9.08913e-05C8.99242 -0.0116084 6.0901 1.1065 3.86774 3.13302C1.64538 5.15953 0.265022 7.94669 0 10.9426H8.175L9.465 8.64009H2.8725C3.07369 8.08601 3.32472 7.55132 3.6225 7.04259H10.3725L11.6625 4.73259H5.5575C7.32682 3.1703 9.60589 2.3081 11.9662 2.3081C14.3266 2.3081 16.6057 3.1703 18.375 4.73259H12.285L13.575 7.04259H20.325C20.6226 7.55144 20.8736 8.08611 21.075 8.64009H14.475L15.75 10.9426H23.925C23.6611 7.95959 22.2914 5.18305 20.0849 3.15836C17.8784 1.13367 14.9946 0.00715728 12 9.08913e-05Z" fill="#0450F2"/>
</g>
<defs>
<clipPath id="clip0_2502_12461">
<rect width="144" height="24" fill="white"/>
</clipPath>
</defs>
</svg>
