<?xml version="1.0" encoding="utf-8"?>
<svg viewBox="189.466 87.509 91.623 40" xmlns="http://www.w3.org/2000/svg">
  <rect x="223.259" y="97.361" width="26.697" height="21.213" style="stroke: rgb(0, 0, 0);" rx="7.269" ry="7.269"/>
  <path d="M 189.466 102.805 L 191.255 112.63 L 193.471 112.63 L 194.571 105.502 L 194.599 105.502 L 195.7 112.63 L 197.915 112.63 L 199.704 102.805 L 197.805 102.805 L 196.718 110.07 L 196.69 110.07 L 195.535 102.805 L 193.636 102.805 L 192.48 110.07 L 192.452 110.07 L 191.365 102.805 L 189.466 102.805 Z" fill="black"/>
  <path d="M 206.402 102.805 L 200.912 102.805 L 200.912 112.63 L 206.539 112.63 L 206.539 111.006 L 202.893 111.006 L 202.893 108.364 L 206.195 108.364 L 206.195 106.74 L 202.893 106.74 L 202.893 104.429 L 206.402 104.429 L 206.402 102.805 Z" fill="black"/>
  <path d="M 209.93 111.171 L 209.93 108.213 L 210.784 108.213 C 211.004 108.213 211.206 108.235 211.389 108.281 C 211.572 108.327 211.728 108.41 211.857 108.529 C 211.994 108.639 212.1 108.79 212.173 108.983 C 212.256 109.167 212.297 109.4 212.297 109.685 C 212.297 110.254 212.15 110.643 211.857 110.854 C 211.563 111.065 211.178 111.171 210.701 111.171 L 209.93 111.171 Z M 209.93 106.837 L 209.93 104.263 L 210.646 104.263 C 211.141 104.263 211.504 104.36 211.733 104.552 C 211.962 104.745 212.077 105.075 212.077 105.543 C 212.077 106.011 211.949 106.346 211.692 106.548 C 211.444 106.74 211.045 106.837 210.495 106.837 L 209.93 106.837 Z M 207.949 102.805 L 207.949 112.63 L 211.293 112.63 C 211.871 112.63 212.352 112.552 212.737 112.396 C 213.132 112.24 213.448 112.033 213.687 111.776 C 213.935 111.51 214.109 111.203 214.21 110.854 C 214.311 110.506 214.361 110.139 214.361 109.754 C 214.361 109.093 214.201 108.566 213.88 108.171 C 213.558 107.777 213.123 107.543 212.572 107.47 L 212.572 107.442 C 213.068 107.304 213.439 107.048 213.687 106.671 C 213.935 106.286 214.058 105.827 214.058 105.295 C 214.058 104.828 213.99 104.433 213.852 104.112 C 213.714 103.791 213.522 103.534 213.274 103.342 C 213.026 103.149 212.728 103.011 212.38 102.929 C 212.04 102.846 211.669 102.805 211.265 102.805 L 207.949 102.805 Z" fill="black"/>
  <path fill-rule="evenodd" clip-rule="evenodd" d="M 254.313 97.509 L 236.992 87.509 L 219.671 97.509 L 219.671 117.509 L 236.992 127.509 L 254.313 117.509 L 254.313 97.509 Z M 228.738 98.171 C 226.685 98.318 225.591 99.094 224.992 101.028 L 224.992 101.594 C 225.151 102.285 225.373 102.941 225.853 103.492 C 226.594 104.349 227.542 104.875 228.579 105.283 C 230.138 105.895 231.736 105.826 233.322 105.508 C 234.375 105.296 235.421 104.988 236.427 104.607 C 237.166 104.327 237.268 103.94 236.871 103.269 C 236.457 102.571 235.993 101.892 235.473 101.268 C 233.731 99.174 231.576 97.969 228.738 98.171 Z M 244.283 117.075 C 242.702 118.245 240.923 118.317 239.106 118.177 C 238.959 118.166 238.787 118.04 238.686 117.918 C 238.505 117.698 238.322 117.478 238.139 117.259 L 238.139 117.258 C 237.508 116.5 236.876 115.742 236.295 114.948 C 235.327 113.628 235.031 112.064 234.84 110.481 C 234.765 109.859 234.724 109.231 234.688 108.605 C 234.678 108.445 234.693 108.23 234.79 108.125 C 235.819 107.01 236.904 105.964 238.43 105.542 C 238.618 105.49 238.808 105.447 239.023 105.399 C 239.131 105.374 239.245 105.349 239.368 105.32 C 238.671 110.249 240.926 113.89 244.283 117.075 Z M 246.022 115.586 C 246.828 114.502 247.328 113.302 247.377 111.978 C 247.462 110.949 247.18 109.71 246.561 108.597 C 245.414 106.53 243.678 105.373 241.276 105.26 C 240.923 105.244 240.783 105.378 240.676 105.696 C 240.36 106.632 240.222 107.582 240.289 108.569 C 240.409 110.348 241.256 111.83 242.219 113.257 C 242.93 114.31 243.801 115.215 244.944 115.819 C 245.568 116.149 245.612 116.136 246.022 115.586 Z M 236.801 118.011 C 235.002 117.85 233.242 117.614 231.598 116.884 C 230.386 116.344 230.14 115.775 230.567 114.519 C 231.127 112.868 232.119 111.463 233.181 109.961 L 233.305 109.786 C 233.797 112.889 234.802 115.649 236.801 118.011 Z M 238.216 101.352 C 238.215 101.379 238.213 101.406 238.211 101.432 C 238.221 101.505 238.229 101.59 238.237 101.683 C 238.259 101.919 238.285 102.211 238.357 102.491 C 238.656 103.661 239.57 104.019 240.597 103.374 C 241.654 102.71 242.393 101.753 242.927 100.652 C 243.11 100.278 243.177 99.807 243.161 99.385 C 243.123 98.398 242.266 97.47 241.43 97.433 C 240.494 97.392 239.706 97.718 239.072 98.41 C 238.338 99.213 238.281 100.208 238.216 101.352 Z" fill="#F4CB45"/>
  <path d="M 262.346 111.171 L 262.346 108.213 L 263.199 108.213 C 263.42 108.213 263.621 108.235 263.805 108.281 C 263.988 108.327 264.144 108.41 264.273 108.529 C 264.41 108.639 264.516 108.79 264.589 108.983 C 264.672 109.167 264.713 109.4 264.713 109.685 C 264.713 110.254 264.566 110.643 264.273 110.854 C 263.979 111.065 263.594 111.171 263.117 111.171 L 262.346 111.171 Z M 262.346 106.837 L 262.346 104.263 L 263.062 104.263 C 263.557 104.263 263.92 104.36 264.149 104.552 C 264.378 104.745 264.493 105.075 264.493 105.543 C 264.493 106.011 264.364 106.346 264.108 106.548 C 263.86 106.74 263.461 106.837 262.91 106.837 L 262.346 106.837 Z M 260.365 102.805 L 260.365 112.63 L 263.709 112.63 C 264.286 112.63 264.768 112.552 265.153 112.396 C 265.548 112.24 265.864 112.033 266.103 111.776 C 266.35 111.51 266.525 111.203 266.626 110.854 C 266.727 110.506 266.777 110.139 266.777 109.754 C 266.777 109.093 266.616 108.566 266.295 108.171 C 265.974 107.777 265.539 107.543 264.988 107.47 L 264.988 107.442 C 265.484 107.304 265.855 107.048 266.103 106.671 C 266.35 106.286 266.474 105.827 266.474 105.295 C 266.474 104.828 266.405 104.433 266.268 104.112 C 266.13 103.791 265.938 103.534 265.69 103.342 C 265.442 103.149 265.144 103.011 264.796 102.929 C 264.456 102.846 264.085 102.805 263.681 102.805 L 260.365 102.805 Z" fill="black"/>
  <path d="M 273.914 102.805 L 268.424 102.805 L 268.424 112.63 L 274.051 112.63 L 274.051 111.006 L 270.405 111.006 L 270.405 108.364 L 273.707 108.364 L 273.707 106.74 L 270.405 106.74 L 270.405 104.429 L 273.914 104.429 L 273.914 102.805 Z" fill="black"/>
  <path d="M 280.951 102.805 L 275.461 102.805 L 275.461 112.63 L 281.089 112.63 L 281.089 111.006 L 277.443 111.006 L 277.443 108.364 L 280.745 108.364 L 280.745 106.74 L 277.443 106.74 L 277.443 104.429 L 280.951 104.429 L 280.951 102.805 Z" fill="black"/>
</svg>